<?xml version="1.0" standalone="no"?>
<!DOCTYPE svg PUBLIC "-//W3C//DTD SVG 20010904//EN"
 "http://www.w3.org/TR/2001/REC-SVG-20010904/DTD/svg10.dtd">
<svg version="1.0" xmlns="http://www.w3.org/2000/svg"
 width="1024.000000pt" height="1024.000000pt" viewBox="0 0 1024.000000 1024.000000"
 preserveAspectRatio="xMidYMid meet">

<g transform="translate(0.000000,1024.000000) scale(0.100000,-0.100000)"
fill="#000000" stroke="none">
<path d="M1575 6255 l-25 -24 0 -1054 c0 -1046 0 -1053 20 -1075 12 -12 24
-22 27 -22 4 0 -3 10 -15 23 l-22 23 0 1052 c0 1039 0 1052 20 1072 20 20 33
20 985 20 l966 0 24 -25 c14 -13 25 -20 25 -15 0 5 -12 18 -26 29 -27 21 -31
21 -991 21 l-964 0 -24 -25z"/>
<path d="M4090 6205 c0 -20 5 -25 25 -25 14 0 34 -9 45 -20 19 -19 20 -29 15
-103 -3 -45 -10 -188 -15 -317 -9 -221 -11 -236 -31 -252 -12 -10 -32 -18 -45
-18 -19 0 -24 -5 -24 -25 l0 -25 125 0 125 0 0 25 c0 20 -5 25 -25 25 -14 0
-34 9 -45 20 -18 18 -19 30 -14 192 7 273 16 406 24 378 4 -14 55 -146 114
-295 59 -148 113 -286 120 -305 11 -28 20 -36 43 -38 l29 -3 114 298 c159 419
143 394 151 238 15 -312 19 -451 10 -463 -4 -8 -24 -17 -42 -21 -25 -5 -35
-13 -37 -29 -3 -22 -3 -22 168 -22 171 0 171 0 168 22 -2 16 -12 24 -38 29
-18 4 -39 14 -45 23 -7 9 -16 122 -24 293 -6 153 -14 295 -17 315 -6 43 21 78
61 78 20 0 25 5 25 25 l0 26 -126 -3 -126 -3 -74 -195 c-41 -107 -89 -234
-107 -282 -17 -49 -34 -88 -37 -88 -3 0 -54 129 -115 285 l-110 285 -132 0
-133 0 0 -25z"/>
<path d="M5545 6211 c-77 -35 -116 -107 -100 -188 3 -20 20 -63 36 -96 17 -32
29 -60 27 -61 -2 -2 -29 -20 -60 -40 -126 -82 -168 -185 -119 -292 61 -134
247 -164 403 -65 l48 30 27 -26 c68 -63 157 -79 233 -40 57 28 61 53 8 49 -48
-4 -86 17 -137 74 l-41 46 26 42 c14 22 45 80 69 128 45 87 65 108 104 108 14
0 21 6 21 19 0 18 -9 20 -125 23 -124 3 -125 3 -125 -19 0 -18 6 -23 26 -23
36 0 64 -17 64 -40 0 -17 -72 -165 -89 -183 -4 -4 -48 45 -96 109 l-88 118 24
15 c48 32 112 97 125 128 46 109 -31 203 -166 203 -32 0 -72 -8 -95 -19z m142
-46 c26 -18 38 -70 29 -121 -7 -34 -68 -114 -88 -114 -16 0 -68 124 -68 164 0
72 70 111 127 71z m-137 -343 c0 -5 45 -71 100 -147 56 -75 100 -139 98 -140
-2 -1 -22 -12 -45 -24 -94 -47 -189 -13 -234 84 -23 49 -24 94 -3 143 22 53
84 115 84 84z"/>
<path d="M6358 6225 c-5 -5 -8 -17 -8 -27 0 -13 7 -18 26 -18 14 0 34 -5 45
-10 18 -10 19 -25 19 -345 0 -243 -3 -336 -12 -341 -6 -4 -25 -10 -42 -13 -22
-5 -32 -13 -34 -29 -3 -22 -3 -22 168 -22 l171 0 -3 23 c-2 17 -11 23 -38 27
-49 7 -60 34 -60 161 l0 106 93 6 c114 7 181 27 231 69 51 42 76 98 76 173 0
109 -59 189 -162 220 -58 18 -457 34 -470 20z m388 -76 c57 -27 84 -82 84
-170 0 -118 -58 -178 -177 -182 l-58 -2 -3 175 c-1 96 0 180 2 187 8 21 103
16 152 -8z"/>
<path d="M3582 6170 c0 -19 2 -27 5 -17 2 9 2 25 0 35 -3 9 -5 1 -5 -18z"/>
<path d="M1685 5175 c0 -528 1 -743 2 -477 2 266 2 698 0 960 -1 262 -2 45 -2
-483z"/>
<path d="M3455 5175 c0 -528 1 -743 2 -477 2 266 2 698 0 960 -1 262 -2 45 -2
-483z"/>
<path d="M3581 6114 c0 -11 3 -14 6 -6 3 7 2 16 -1 19 -3 4 -6 -2 -5 -13z"/>
<path d="M3582 6005 c0 -16 2 -22 5 -12 2 9 2 23 0 30 -3 6 -5 -1 -5 -18z"/>
<path d="M3288 6003 c7 -3 16 -2 19 1 4 3 -2 6 -13 5 -11 0 -14 -3 -6 -6z"/>
<path d="M3248 5993 c7 -3 16 -2 19 1 4 3 -2 6 -13 5 -11 0 -14 -3 -6 -6z"/>
<path d="M3160 5980 c-20 -6 -21 -8 -5 -8 11 0 34 4 50 8 27 7 27 8 5 8 -14 0
-36 -4 -50 -8z"/>
<path d="M3303 5910 c0 -47 2 -66 4 -42 2 23 2 61 0 85 -2 23 -4 4 -4 -43z"/>
<path d="M3098 5963 c6 -2 18 -2 25 0 6 3 1 5 -13 5 -14 0 -19 -2 -12 -5z"/>
<path d="M3582 5940 c0 -19 2 -27 5 -17 2 9 2 25 0 35 -3 9 -5 1 -5 -18z"/>
<path d="M3058 5953 c7 -3 16 -2 19 1 4 3 -2 6 -13 5 -11 0 -14 -3 -6 -6z"/>
<path d="M3008 5943 c6 -2 18 -2 25 0 6 3 1 5 -13 5 -14 0 -19 -2 -12 -5z"/>
<path d="M2946 5932 c-3 -5 14 -26 37 -48 l42 -39 -39 42 c-38 41 -38 41 -15
46 23 4 23 4 2 6 -12 0 -24 -3 -27 -7z"/>
<path d="M3583 5820 c0 -47 2 -66 4 -42 2 23 2 61 0 85 -2 23 -4 4 -4 -43z"/>
<path d="M3035 5820 c10 -11 20 -20 22 -20 2 0 -2 9 -9 20 -7 11 -17 20 -22
20 -5 0 -1 -9 9 -20z"/>
<path d="M3293 5740 c0 -41 2 -58 4 -37 2 20 2 54 0 75 -2 20 -4 3 -4 -38z"/>
<path d="M2840 5588 c-107 -110 -199 -207 -203 -216 -5 -10 6 -1 24 18 17 19
113 117 212 218 99 100 176 182 171 181 -5 0 -97 -91 -204 -201z"/>
<path d="M3581 5714 c0 -11 3 -14 6 -6 3 7 2 16 -1 19 -3 4 -6 -2 -5 -13z"/>
<path d="M2880 5413 l-264 -275 -151 156 -150 157 -91 -91 c-50 -49 -88 -90
-85 -90 4 0 45 38 91 85 l85 86 150 -157 150 -157 115 119 c63 65 176 182 250
259 74 77 137 142 140 145 11 11 32 40 29 40 -2 -1 -123 -125 -269 -277z"/>
<path d="M3214 5648 c20 -25 44 -49 52 -52 16 -6 29 16 21 36 -3 7 -6 2 -6
-12 -1 -23 -4 -21 -53 25 l-51 50 37 -47z"/>
<path d="M3584 5505 c0 -99 2 -138 3 -87 2 51 2 132 0 180 -1 48 -3 6 -3 -93z"/>
<path d="M2051 5383 l-270 -278 -1 -100 0 -100 174 175 c96 96 172 177 170
180 -3 2 -79 -70 -169 -161 l-165 -166 0 86 1 86 267 273 267 273 145 -143
145 -143 -145 148 c-80 81 -145 147 -146 147 -1 0 -124 -125 -273 -277z"/>
<path d="M3015 5290 c-82 -82 -146 -150 -142 -150 3 0 68 63 144 140 76 77
143 140 148 140 18 0 113 -103 129 -140 8 -19 15 -29 16 -22 0 25 -29 68 -87
125 l-59 57 -149 -150z"/>
<path d="M3583 5275 c0 -27 2 -38 4 -22 2 15 2 37 0 50 -2 12 -4 0 -4 -28z"/>
<path d="M2225 5166 c-44 -41 -78 -76 -75 -78 3 -2 41 32 85 74 44 43 78 77
75 77 -3 0 -41 -33 -85 -73z"/>
<path d="M3314 5125 c0 -60 1 -84 3 -52 2 32 2 81 0 110 -2 29 -3 3 -3 -58z"/>
<path d="M3584 5115 c0 -60 1 -84 3 -52 2 32 2 81 0 110 -2 29 -3 3 -3 -58z"/>
<path d="M4050 5197 c0 -7 15 -17 33 -22 l32 -10 0 -260 0 -260 -32 -10 c-18
-5 -33 -15 -33 -22 0 -10 30 -13 130 -13 109 0 130 2 130 15 0 8 -9 15 -19 15
-11 0 -27 10 -35 22 -13 19 -16 61 -16 260 0 253 3 268 51 268 10 0 19 7 19
15 0 13 -21 15 -130 15 -100 0 -130 -3 -130 -13z"/>
<path d="M3026 5089 c-58 -62 -106 -116 -106 -121 0 -5 19 12 41 39 23 26 45
50 48 53 26 23 134 140 129 140 -3 0 -54 -50 -112 -111z"/>
<path d="M6224 5089 c-38 -44 -70 -85 -72 -90 -2 -5 8 -9 22 -9 l26 0 0 -155
c0 -167 7 -198 52 -229 46 -33 184 -8 176 31 -3 14 -13 18 -46 18 -32 0 -48 5
-58 19 -15 22 -15 19 -16 191 l0 120 52 3 c46 3 51 5 48 25 -3 19 -10 22 -53
25 l-50 3 3 55 c2 31 0 60 -5 65 -6 6 -37 -22 -79 -72z"/>
<path d="M8302 5086 c-40 -47 -72 -87 -72 -90 0 -3 11 -6 24 -6 l25 0 3 -171
3 -171 34 -30 c31 -28 38 -30 93 -26 42 3 65 10 80 25 27 28 15 45 -27 37 -26
-4 -38 -1 -54 15 -19 19 -21 33 -22 156 -1 74 -2 141 -3 148 -1 7 18 14 49 17
42 4 50 8 50 25 0 17 -8 20 -50 23 l-51 3 4 64 c3 37 0 65 -5 65 -5 0 -42 -38
-81 -84z"/>
<path d="M2806 5074 c-27 -30 -47 -55 -45 -57 2 -1 28 23 58 55 30 32 50 58
45 57 -5 -1 -31 -25 -58 -55z"/>
<path d="M3161 5054 c0 -11 3 -14 6 -6 3 7 2 16 -1 19 -3 4 -6 -2 -5 -13z"/>
<path d="M2524 4982 l76 -83 3 -267 2 -267 3 268 2 268 -81 82 -82 82 77 -83z"/>
<path d="M4433 5032 c-77 -17 -94 -35 -43 -46 l30 -6 -2 -172 c-3 -171 -3
-173 -25 -176 -13 -2 -23 -10 -23 -18 0 -11 21 -14 105 -14 83 0 105 3 105 14
0 8 -11 17 -25 20 l-26 7 3 146 c3 144 3 146 29 165 37 28 98 27 121 -2 15
-19 18 -43 18 -166 l0 -144 -30 -6 c-16 -4 -30 -13 -30 -20 0 -11 23 -14 110
-14 89 0 110 3 110 14 0 8 -10 16 -22 18 -22 3 -23 7 -29 163 -3 99 -10 170
-18 186 -32 64 -122 77 -208 30 l-53 -29 0 34 c0 39 3 38 -97 16z"/>
<path d="M5470 5038 c-81 -23 -137 -96 -147 -192 -14 -140 80 -255 210 -256
26 0 63 7 82 15 37 15 95 71 95 92 0 24 -21 24 -49 0 -89 -74 -218 -14 -232
108 l-4 30 148 3 c164 3 156 -2 136 78 -26 102 -127 154 -239 122z m108 -61
c13 -13 27 -38 32 -55 l9 -32 -100 0 c-55 0 -99 4 -99 9 0 18 21 66 37 83 25
27 94 24 121 -5z"/>
<path d="M5876 5040 c-68 -22 -108 -97 -87 -163 16 -46 56 -80 128 -107 32
-12 68 -28 81 -36 30 -20 28 -58 -4 -83 -55 -43 -155 -13 -172 51 -4 18 -15
33 -23 33 -11 0 -14 -14 -14 -60 l0 -59 45 -14 c67 -20 179 -11 219 17 60 43
78 118 42 177 -18 29 -97 75 -155 90 -34 8 -66 41 -66 68 0 76 135 73 175 -4
22 -42 35 -29 35 34 0 51 -1 53 -27 54 -16 0 -55 2 -88 6 -33 3 -73 1 -89 -4z"/>
<path d="M6553 5033 c-77 -16 -95 -36 -43 -47 l30 -6 -2 -172 c-3 -171 -3
-173 -25 -176 -13 -2 -23 -10 -23 -18 0 -11 21 -14 105 -14 84 0 105 3 105 14
0 8 -10 16 -22 18 -23 3 -23 6 -26 154 l-3 152 45 22 c48 23 73 21 100 -9 14
-16 16 -40 14 -167 -3 -146 -3 -149 -25 -152 -13 -2 -23 -10 -23 -18 0 -11 21
-14 105 -14 84 0 105 3 105 14 0 8 -10 16 -22 18 -23 3 -23 6 -26 153 -3 143
-2 151 19 168 13 10 38 17 65 17 69 0 75 -17 72 -191 l-3 -144 -27 -3 c-16 -2
-28 -9 -28 -18 0 -11 21 -14 110 -14 89 0 110 3 110 14 0 8 -10 16 -22 18 -23
3 -23 6 -28 165 -4 144 -7 165 -26 190 -31 41 -62 54 -121 50 -36 -2 -65 -12
-94 -32 -36 -23 -44 -25 -53 -13 -47 62 -160 62 -228 1 -17 -15 -18 -14 -18
20 0 42 4 41 -97 20z"/>
<path d="M7415 5035 c-83 -32 -134 -110 -135 -205 0 -76 14 -120 55 -167 86
-100 242 -96 316 8 32 45 12 58 -40 24 -95 -63 -205 -11 -226 108 l-7 37 150
0 151 0 -6 38 c-9 64 -44 123 -87 145 -49 26 -120 31 -171 12z m119 -57 c15
-13 29 -38 32 -55 l7 -33 -98 0 -97 0 6 32 c15 74 95 104 150 56z"/>
<path d="M7788 5032 c-83 -17 -98 -32 -45 -47 l32 -10 3 -159 c3 -165 -2 -186
-39 -186 -11 0 -19 -7 -19 -15 0 -12 19 -15 110 -15 87 0 110 3 110 14 0 7
-13 16 -30 20 l-30 6 0 144 0 145 29 20 c49 35 86 37 116 7 25 -26 26 -26 23
-173 -3 -145 -3 -148 -25 -151 -13 -2 -23 -10 -23 -18 0 -11 21 -14 105 -14
84 0 105 3 105 14 0 8 -10 16 -22 18 -23 3 -23 6 -28 168 -5 178 -11 200 -60
225 -47 24 -106 19 -167 -15 l-53 -30 0 35 c0 19 -3 34 -7 34 -5 -1 -43 -8
-85 -17z"/>
<path d="M8643 5031 c-53 -25 -77 -68 -70 -128 6 -59 42 -95 131 -132 107 -44
131 -92 65 -126 -33 -18 -79 -19 -112 -4 -26 12 -57 57 -57 83 0 9 -7 16 -15
16 -12 0 -15 -13 -15 -60 0 -51 3 -61 22 -71 28 -15 135 -24 182 -15 77 15
135 99 115 168 -13 48 -45 74 -128 108 -106 44 -133 78 -91 120 40 40 137 16
160 -39 7 -18 17 -30 22 -29 5 2 9 7 9 11 -1 4 -1 29 -1 56 0 46 -1 48 -27 49
-16 0 -55 3 -88 6 -48 6 -68 3 -102 -13z"/>
<path d="M4858 5028 c-3 -7 6 -21 18 -33 12 -11 59 -107 105 -213 111 -256
104 -257 216 8 46 107 93 202 103 212 36 30 24 38 -60 38 -73 0 -80 -2 -80
-20 0 -15 7 -20 25 -20 14 0 28 -7 31 -15 4 -9 -12 -60 -35 -115 -23 -54 -46
-112 -52 -127 -10 -27 -13 -22 -65 101 -30 71 -54 135 -54 142 0 9 11 14 30
14 23 0 30 4 30 20 0 19 -7 20 -104 20 -73 0 -106 -4 -108 -12z"/>
<path d="M3146 5013 c-6 -14 -5 -15 5 -6 7 7 10 15 7 18 -3 3 -9 -2 -12 -12z"/>
<path d="M2451 4994 c0 -11 3 -14 6 -6 3 7 2 16 -1 19 -3 4 -6 -2 -5 -13z"/>
<path d="M3301 4997 c-3 -51 -80 -146 -131 -162 -12 -4 -19 -9 -17 -12 3 -2
18 2 34 10 58 31 129 129 120 165 -4 15 -5 15 -6 -1z"/>
<path d="M2291 4984 c0 -11 3 -14 6 -6 3 7 2 16 -1 19 -3 4 -6 -2 -5 -13z"/>
<path d="M2760 4685 c0 -175 3 -316 6 -313 6 7 5 620 -1 627 -3 2 -5 -139 -5
-314z"/>
<path d="M3584 4890 c0 -63 1 -89 3 -57 2 31 2 83 0 115 -2 31 -3 5 -3 -58z"/>
<path d="M3110 4969 c-22 -18 -22 -19 -3 -10 12 6 25 16 28 21 9 15 3 12 -25
-11z"/>
<path d="M2453 4910 c0 -36 2 -50 4 -32 2 17 2 47 0 65 -2 17 -4 3 -4 -33z"/>
<path d="M3058 4943 c7 -3 16 -2 19 1 4 3 -2 6 -13 5 -11 0 -14 -3 -6 -6z"/>
<path d="M2291 4834 c0 -11 3 -14 6 -6 3 7 2 16 -1 19 -3 4 -6 -2 -5 -13z"/>
<path d="M3118 4813 c7 -3 16 -2 19 1 4 3 -2 6 -13 5 -11 0 -14 -3 -6 -6z"/>
<path d="M2973 4803 c26 -2 67 -2 90 0 23 2 2 3 -48 3 -49 0 -68 -1 -42 -3z"/>
<path d="M2452 4770 c0 -14 2 -19 5 -12 2 6 2 18 0 25 -3 6 -5 1 -5 -13z"/>
<path d="M2914 4580 c0 -118 2 -167 3 -107 2 59 2 155 0 215 -1 59 -3 10 -3
-108z"/>
<path d="M3584 4660 c0 -58 1 -81 3 -52 2 28 2 76 0 105 -2 28 -3 5 -3 -53z"/>
<path d="M2453 4640 c0 -25 2 -35 4 -22 2 12 2 32 0 45 -2 12 -4 2 -4 -23z"/>
<path d="M3583 4490 c0 -36 2 -50 4 -32 2 17 2 47 0 65 -2 17 -4 3 -4 -33z"/>
<path d="M2453 4445 c0 -22 2 -30 4 -17 2 12 2 30 0 40 -3 9 -5 -1 -4 -23z"/>
<path d="M2450 4379 c0 -5 5 -7 10 -4 6 3 10 8 10 11 0 2 -4 4 -10 4 -5 0 -10
-5 -10 -11z"/>
<path d="M3584 4260 c0 -69 1 -97 3 -62 2 34 2 90 0 125 -2 34 -3 6 -3 -63z"/>
<path d="M4090 4303 c-1 -2 -1 -63 -1 -135 l0 -133 87 0 c82 1 87 2 110 28 30
35 30 62 0 92 -21 21 -22 25 -8 38 20 20 18 63 -3 87 -13 15 -34 19 -101 22
-46 2 -84 2 -84 1z m134 -49 c19 -7 21 -35 4 -52 -7 -7 -29 -12 -50 -12 -37 0
-38 1 -38 35 0 33 2 35 34 35 19 0 41 -3 50 -6z m22 -118 c33 -25 7 -50 -55
-54 l-51 -3 0 35 c0 36 0 36 43 36 24 0 52 -6 63 -14z"/>
<path d="M4572 4169 l-60 -139 27 0 c22 0 29 7 40 35 12 35 13 35 72 35 58 0
60 -1 76 -35 12 -26 23 -35 41 -35 28 0 29 -3 -38 151 -40 93 -53 115 -73 120
-24 7 -28 1 -85 -132z m118 -20 c0 -5 -18 -9 -40 -9 -38 0 -39 1 -30 25 6 14
15 37 21 52 l10 27 20 -43 c10 -24 19 -47 19 -52z"/>
<path d="M5020 4169 l0 -139 25 0 c24 0 24 2 27 92 l3 91 69 -91 c53 -69 75
-92 93 -92 23 0 23 1 23 134 l0 134 -25 4 -25 5 0 -88 c0 -49 -3 -89 -7 -89
-5 1 -36 38 -70 84 -43 58 -69 85 -87 88 l-26 5 0 -138z"/>
<path d="M5523 4302 c-23 -3 -23 -6 -23 -138 l0 -134 25 0 c23 0 25 4 25 43 0
31 6 49 20 62 11 10 21 16 23 14 66 -96 89 -119 118 -119 l31 0 -32 43 c-18
23 -44 59 -58 80 l-25 38 51 52 c29 29 52 55 52 58 0 3 -15 3 -34 0 -24 -4
-48 -22 -87 -65 l-54 -59 -5 64 c-5 59 -7 64 -27 61z"/>
<path d="M5950 4168 l0 -138 100 0 100 0 0 25 c0 24 -2 25 -75 25 l-75 0 0 35
0 35 65 0 c58 0 65 2 65 20 0 18 -7 20 -65 20 l-65 0 0 35 0 35 75 0 c67 0 75
2 75 19 0 18 -9 20 -100 23 l-100 3 0 -137z"/>
<path d="M6428 4302 l-48 -3 0 -135 0 -134 24 0 c23 0 25 5 28 48 3 44 5 47
28 44 24 -3 40 -17 78 -69 13 -18 25 -24 46 -21 l28 3 -36 47 c-40 52 -42 58
-22 58 43 0 62 102 26 135 -23 21 -83 31 -152 27z m103 -52 c21 -12 25 -50 7
-68 -7 -7 -34 -12 -60 -12 l-48 0 0 45 0 45 41 0 c22 0 49 -5 60 -10z"/>
<path d="M6880 4303 c-31 -11 -60 -47 -60 -74 0 -38 27 -65 87 -84 58 -18 66
-25 57 -49 -7 -19 -61 -21 -98 -5 -20 9 -29 9 -41 -1 -22 -18 -19 -24 20 -43
86 -41 175 -4 175 73 0 25 -51 66 -93 74 -40 7 -62 29 -53 51 6 18 58 20 88 4
16 -8 24 -8 35 4 20 20 10 34 -35 47 -40 11 -59 11 -82 3z"/>
<path d="M3556 4102 l-19 -27 24 22 c12 12 21 24 18 27 -2 2 -13 -8 -23 -22z"/>
<path d="M2088 4073 c265 -2 699 -2 965 0 265 1 48 2 -483 2 -531 0 -748 -1
-482 -2z"/>
</g>
</svg>
